<svg xmlns="http://www.w3.org/2000/svg" width="512" height="512" viewBox="0 0 512 512" version="1.1">
	<path d="M 424.250 52.986 L 421.500 57.971 230.143 57.986 C 53.816 57.999, 38.835 58.128, 39.410 59.627 C 40.387 62.172, 270.122 460.354, 271.380 461.683 C 272.220 462.570, 302.163 411.451, 391.222 257.086 C 456.520 143.908, 510.230 50.564, 510.579 49.654 C 511.164 48.131, 507.866 48, 469.107 48 L 426.999 48 424.250 52.986 M 1 58.457 C 1 59.077, 233.022 461.287, 233.969 462.310 C 234.382 462.755, 236.770 459.500, 239.276 455.077 L 243.832 447.034 131.666 252.517 L 19.500 58 10.250 58 C 5.162 58, 1 58.206, 1 58.457 M 439.751 82.750 C 437.911 85.912, 430.381 98.958, 423.017 111.740 L 409.629 134.979 365.674 135.240 L 321.719 135.500 270.363 224.500 C 242.117 273.450, 219.006 313.771, 219.004 314.101 C 219.002 314.432, 229.882 333.557, 243.181 356.601 C 256.481 379.646, 268.294 400.184, 269.431 402.242 C 270.569 404.300, 271.731 405.987, 272.013 405.992 C 272.389 405.998, 432.185 129.522, 458.808 82.805 L 462.116 77 452.606 77 L 443.096 77 439.751 82.750 M 88.550 88 C 89.738 91.116, 180.511 248, 181.126 248 C 181.480 248, 200.605 215.375, 223.627 175.500 L 265.486 103 274.743 103 C 279.834 103, 284 103.151, 284 103.335 C 284 103.519, 263.247 139.631, 237.883 183.585 C 212.519 227.538, 191.561 264.021, 191.311 264.658 C 190.877 265.765, 198.965 280.968, 200 280.988 C 200.275 280.994, 223.508 241.061, 251.629 192.249 L 302.758 103.500 346.675 103.240 L 390.593 102.979 395.259 94.996 L 399.924 87.012 243.951 86.756 C 105.650 86.529, 88.043 86.670, 88.550 88" stroke="none" fill="black" fill-rule="evenodd"/>
</svg>